<svg id="Layer_1" data-name="Layer 1" xmlns="http://www.w3.org/2000/svg" viewBox="0 0 67.71 73.96"><defs><style>.cls-1{fill:none;stroke:#000;stroke-linejoin:round;stroke-width:2px;}</style></defs><title>clear-night</title><path class="cls-1" d="M270.81,199.22S254.72,213,260.57,230.66s27.23,20,27.23,20h0A36.69,36.69,0,0,1,270,266.21a33.31,33.31,0,0,1-17.64,2.44,38.3,38.3,0,0,1-11.63-4.11,35.69,35.69,0,0,1-18.51-34.23c0.07-.92.22-2.18,0.44-3.67a31.23,31.23,0,0,1,1-4.31c5.65-19,26.11-29.47,45.11-23.75Z" transform="translate(-221.09 -196.03)"/></svg>