<svg id="Layer_1" data-name="Layer 1" xmlns="http://www.w3.org/2000/svg" viewBox="0 0 104.73 72.92"><defs><style>.cls-1{fill:none;}.cls-1,.cls-2{stroke:#000;stroke-linejoin:round;stroke-width:2px;}.cls-2{fill:#fff;}</style></defs><title>cloudy</title><path class="cls-1" d="M533.91,203.88s2.58-14.46,14.33-14.46,16,10.52,16.13,13.49l1.59-.33a8.94,8.94,0,0,1,6.72,1.22,16.68,16.68,0,0,1,7.82,14.67,16.16,16.16,0,0,1-7.59,13.83,14.11,14.11,0,0,1-7.77,2.31H527.43a13.36,13.36,0,0,1-5.74-1.28c-3.94-1.87-9.85-6.12-9.85-14.72,0-9.06,6.11-13.22,9.75-14.9a11.13,11.13,0,0,1,4.41-1l1.56,0a14.29,14.29,0,0,1,4.84.73Z" transform="translate(-476.77 -188.42)"/><path class="cls-2" d="M507.37,219.15s3.46-19.38,19.21-19.38,21.46,14.11,21.63,18.09l2.13-.44a12,12,0,0,1,9,1.63,22.37,22.37,0,0,1,10.49,19.67,21.66,21.66,0,0,1-10.17,18.54,18.93,18.93,0,0,1-10.42,3.09H498.68a17.91,17.91,0,0,1-7.7-1.72c-5.28-2.51-13.21-8.2-13.21-19.75,0-12.15,8.19-17.73,13.07-20a14.92,14.92,0,0,1,5.92-1.36l2.09,0a19.16,19.16,0,0,1,6.48,1Z" transform="translate(-476.77 -188.42)"/></svg>