<svg id="Layer_1" data-name="Layer 1" xmlns="http://www.w3.org/2000/svg" viewBox="0 0 94.33 69.5"><defs><style>.cls-1{fill:none;stroke:#000;stroke-linecap:round;stroke-linejoin:round;stroke-width:2px;}</style></defs><title>fog</title><path class="cls-1" d="M62.37,225.41c0-12.15,8.19-17.73,13.07-20a14.92,14.92,0,0,1,5.92-1.36l2.09,0a19.16,19.16,0,0,1,6.48,1l2,0.68s3.46-19.38,19.21-19.38,21.46,14.11,21.63,18.09l2.13-.44a12,12,0,0,1,9,1.63,22.37,22.37,0,0,1,10.49,19.67" transform="translate(-61.37 -185.29)"/><line class="cls-1" x1="2.94" y1="49.5" x2="93.08" y2="49.5"/><line class="cls-1" x1="2.94" y1="58.25" x2="93.08" y2="58.25"/><line class="cls-1" x1="3.19" y1="68.5" x2="93.33" y2="68.5"/></svg>