<svg id="Layer_1" data-name="Layer 1" xmlns="http://www.w3.org/2000/svg" viewBox="0 0 109.51 92.36"><defs><style>.cls-1,.cls-3{fill:#fff;}.cls-1,.cls-2,.cls-3{stroke:#000;stroke-width:2px;}.cls-1{stroke-linecap:round;}.cls-1,.cls-2{stroke-miterlimit:10;}.cls-2{fill:none;}.cls-3{stroke-linejoin:round;}</style></defs><title>partly-cloudly-day</title><line class="cls-1" x1="86.48" y1="1.07" x2="82.3" y2="10.55"/><line class="cls-1" x1="108.51" y1="23.3" x2="98.85" y2="27.04"/><line class="cls-1" x1="45.47" y1="47.49" x2="35.81" y2="51.24"/><line class="cls-1" x1="59.21" y1="62.89" x2="55.02" y2="72.37"/><line class="cls-1" x1="106.99" y1="54.02" x2="97.52" y2="49.84"/><line class="cls-1" x1="45.1" y1="26.71" x2="35.62" y2="22.53"/><line class="cls-1" x1="61.72" y1="10.66" x2="57.98" y2="1"/><line class="cls-1" x1="86.21" y1="73.84" x2="82.47" y2="64.18"/><circle class="cls-2" cx="433.12" cy="86.49" r="19.65" transform="translate(-182.46 398.52) rotate(-66.19)"/><path class="cls-3" d="M391.11,101s3.33-18.67,18.5-18.67,20.67,13.58,20.83,17.42l2.05-.43a11.55,11.55,0,0,1,8.68,1.57,21.54,21.54,0,0,1,10.1,18.94,20.86,20.86,0,0,1-9.8,17.86,18.23,18.23,0,0,1-10,3h-48.7a17.25,17.25,0,0,1-7.41-1.65c-5.09-2.42-12.72-7.9-12.72-19,0-11.7,7.89-17.08,12.58-19.24a14.37,14.37,0,0,1,5.7-1.31l2,0a18.45,18.45,0,0,1,6.24.94Z" transform="translate(-361.61 -49.32)"/></svg>