<svg id="Layer_1" data-name="Layer 1" xmlns="http://www.w3.org/2000/svg" viewBox="0 0 105.92 76.05"><defs><style>.cls-1{fill:none;stroke-linejoin:round;}.cls-1,.cls-2{stroke:#000;stroke-linecap:round;stroke-width:2px;}.cls-2{fill:#fff;stroke-miterlimit:10;}</style></defs><title>partly-cloudy-night</title><path class="cls-1" d="M346.42,208.86s12,6.19,21.11-1.58,5.24-21,5.24-21h0a23.48,23.48,0,0,1,13.52,6.79,21.32,21.32,0,0,1,5.73,9.85,24.51,24.51,0,0,1,.4,7.88,22.84,22.84,0,0,1-15.77,19.28c-0.56.18-1.34,0.4-2.28,0.63a20,20,0,0,1-2.78.47c-12.63,1.28-23.79-8.3-25-20.93C346.48,209.4,346.43,208.87,346.42,208.86Z" transform="translate(-345.42 -185.29)"/><path class="cls-2" d="M385.72,217.74s3.58-20.05,19.87-20.05,22.2,14.59,22.38,18.71l2.21-.46a12.41,12.41,0,0,1,9.32,1.69A23.13,23.13,0,0,1,450.34,238a22.41,22.41,0,0,1-10.52,19.18,19.58,19.58,0,0,1-10.78,3.2H376.73a18.52,18.52,0,0,1-8-1.78c-5.46-2.6-13.66-8.49-13.66-20.42,0-12.57,8.47-18.34,13.52-20.67a15.43,15.43,0,0,1,6.12-1.41l2.16,0a19.82,19.82,0,0,1,6.71,1Z" transform="translate(-345.42 -185.29)"/></svg>