<?xml version="1.0" encoding="utf-8"?>
<!-- Generator: Adobe Illustrator 19.2.0, SVG Export Plug-In . SVG Version: 6.00 Build 0)  -->
<svg version="1.1" id="Layer_1" xmlns="http://www.w3.org/2000/svg" xmlns:xlink="http://www.w3.org/1999/xlink" x="0px" y="0px"
	 viewBox="0 0 102.2 80.6" style="enable-background:new 0 0 102.2 80.6;" xml:space="preserve">
<style type="text/css">
	.st0{fill:none;stroke:#000000;stroke-width:2;stroke-linejoin:round;}
	.st1{fill:#FFFFFF;stroke:#000000;stroke-width:2;stroke-linecap:round;stroke-miterlimit:10;}
</style>
<title>partly-cloudy-night</title>
<path class="st0" d="M1,29.4c2.6,6.9,8.6,12,15.9,13.4c11.6,2.2,22.7-5.3,24.9-16.9S36.5,3.2,25,1c3.9,6.1,4.5,14.4,0.4,20.6
	C19.9,29.6,9.8,33.2,1,29.4z"/>
<path class="st1" d="M36.6,37c0,0,3.6-20.1,19.9-20.1s22.2,14.6,22.4,18.7l2.2-0.5c3.2-0.7,6.6-0.1,9.3,1.7
	c7,4.4,11.1,12.1,10.8,20.4c0.1,7.8-3.9,15-10.5,19.2c-3.2,2.1-7,3.2-10.8,3.2H27.6c-2.8,0-5.5-0.6-8-1.8
	c-5.5-2.6-13.7-8.5-13.7-20.4c0-12.6,8.5-18.3,13.5-20.7c1.9-0.9,4-1.4,6.1-1.4h2.2c2.3-0.1,4.5,0.3,6.7,1L36.6,37z"/>
</svg>
