<svg id="Layer_1" data-name="Layer 1" xmlns="http://www.w3.org/2000/svg" viewBox="0 0 70.65 101.52"><defs><style>.cls-1{fill:none;stroke:#000;stroke-linecap:round;stroke-miterlimit:10;stroke-width:2px;}</style></defs><title>rain</title><line class="cls-1" x1="16.15" y1="1" x2="4.89" y2="12.27"/><line class="cls-1" x1="34.1" y1="1" x2="22.83" y2="12.27"/><line class="cls-1" x1="51.71" y1="1" x2="40.44" y2="12.27"/><line class="cls-1" x1="69.65" y1="1" x2="58.38" y2="12.27"/><path class="cls-1" d="M605.22,111.71v-0.52A34,34,0,0,0,599,91.33a31.66,31.66,0,0,0-3.32-3.92c-7.53-7.53-19.87-9.18-24-9.18h-0.9c-4.17,0-16.85,1.65-24.37,9.18a31.08,31.08,0,0,0-2.57,2.92,34.07,34.07,0,0,0-6.95,20.93v0.46" transform="translate(-535.87 -54.13)"/><path class="cls-1" d="M569,117.38v25.38a10.2,10.2,0,0,0,1.29,5c1.6,2.87,4.76,6.92,9.88,6.92a26.13,26.13,0,0,0,5.1-.49,12.71,12.71,0,0,0,9.76-8.88,8.76,8.76,0,0,0,.44-3.23" transform="translate(-535.87 -54.13)"/></svg>