<svg id="Layer_1" data-name="Layer 1" xmlns="http://www.w3.org/2000/svg" viewBox="0 0 106.99 53.32"><defs><style>.cls-1{fill:none;stroke:#000;stroke-linecap:round;stroke-linejoin:round;stroke-width:2px;}</style></defs><title>wind</title><path class="cls-1" d="M686.45,114.56h57.88a10.4,10.4,0,0,0,5.06-1.23c2.44-1.36,4.62-4.3,4.79-10.25a16.29,16.29,0,0,0-.07-2.07,8.39,8.39,0,0,0-9-7.9l-0.87.06" transform="translate(-648.2 -92.09)"/><line class="cls-1" x1="30" y1="14.59" x2="79.25" y2="14.59"/><line class="cls-1" x1="9.75" y1="14.59" x2="23.5" y2="14.59"/><line class="cls-1" x1="16.63" y1="22.47" x2="31.75" y2="22.47"/><line class="cls-1" x1="1" y1="30.86" x2="15.5" y2="30.86"/><path class="cls-1" d="M670.2,122.95h64.13a10.4,10.4,0,0,1,5.06,1.23c2.44,1.36,4.62,4.3,4.79,10.25a16.29,16.29,0,0,1-.07,2.07,8.39,8.39,0,0,1-9,7.9l-0.87-.06" transform="translate(-648.2 -92.09)"/></svg>